<?xml version="1.0" encoding="UTF-8" standalone="no"?>
<!-- Uploaded to: SVG Repo, www.svgrepo.com, Generator: SVG Repo Mixer Tools -->

<svg
   width="800px"
   height="800px"
   viewBox="0 0 512 512"
   id="Layer_1"
   version="1.1"
   xml:space="preserve"
   sodipodi:docname="rocket.svg"
   inkscape:version="1.1.2 (0a00cf5339, 2022-02-04)"
   xmlns:inkscape="http://www.inkscape.org/namespaces/inkscape"
   xmlns:sodipodi="http://sodipodi.sourceforge.net/DTD/sodipodi-0.dtd"
   xmlns="http://www.w3.org/2000/svg"
   xmlns:svg="http://www.w3.org/2000/svg"><defs
   id="defs43" /><sodipodi:namedview
   id="namedview41"
   pagecolor="#ffffff"
   bordercolor="#666666"
   borderopacity="1.0"
   inkscape:pageshadow="2"
   inkscape:pageopacity="0.0"
   inkscape:pagecheckerboard="0"
   showgrid="false"
   inkscape:zoom="0.51875"
   inkscape:cx="296.86747"
   inkscape:cy="487.71084"
   inkscape:window-width="1920"
   inkscape:window-height="1012"
   inkscape:window-x="0"
   inkscape:window-y="0"
   inkscape:window-maximized="1"
   inkscape:current-layer="Layer_1" />

<style
   type="text/css"
   id="style2">
	.st0{fill:#0A557F;}
	.st1{fill:#CFF1FF;}
	.st2{fill:#4CC3F2;}
	.st3{fill:#FFFFFF;}
</style>

<g
   id="g38">

<rect
   class="st0"
   height="15"
   transform="matrix(0.7071 -0.7071 0.7071 0.7071 -99.7449 380.7263)"
   width="67.3"
   x="376"
   y="303.3"
   id="rect4" />

<rect
   class="st0"
   height="15"
   transform="matrix(0.7071 -0.7071 0.7071 0.7071 -139.457 364.2759)"
   width="15"
   x="362.5"
   y="343"
   id="rect6" />

<rect
   class="st0"
   height="15"
   transform="matrix(0.7071 -0.7071 0.7071 0.7071 37.8495 191.83)"
   width="67.3"
   x="216.8"
   y="42.7"
   id="rect8" />

<rect
   class="st0"
   height="15"
   transform="matrix(0.7071 -0.7071 0.7071 0.7071 -1.8676 175.3689)"
   width="15"
   x="203.3"
   y="82.4"
   id="rect10" />

<polygon
   class="st1"
   points="57,254.4 129.1,182.2 216.6,163.1 111.3,268.4  "
   id="polygon12" />

<polygon
   class="st2"
   points="138.3,419.6 120,401.3 144.7,376.6 134.1,366 109.4,390.7 93.3,374.6 137.2,311 200,373.7  "
   id="polygon14" />

<rect
   class="st1"
   height="155.3"
   transform="matrix(0.7071 -0.7071 0.7071 0.7071 -173.2893 227.4088)"
   width="24.8"
   x="175.5"
   y="245.2"
   id="rect16" />

<polygon
   class="st1"
   points="328.6,381.7 256.4,453.8 242.4,399.4 347.6,294.2  "
   id="polygon18" />

<path
   class="st2"
   d="M262.2,358.4L152.3,248.6L318.4,82.5l49.6,49.6l-36.1,36.1c-18.7-13.6-45-12-61.9,4.9   c-16.8,16.8-18.5,43.2-4.9,61.9l-31.3,31.3l10.6,10.6l31.3-31.3c18.7,13.6,45,11.9,61.9-4.9c16.8-16.8,18.5-43.2,4.9-61.9   l36.1-36.1l49.6,49.6L262.2,358.4z"
   id="path20" />

<path
   class="st1"
   d="M438.7,181.7L329.1,72c23.9-22,49.4-33.9,73.3-40l76.3,76.3C472.6,132.3,460.8,157.8,438.7,181.7z"
   id="path22" />

<path
   class="st0"
   d="M490.8,13.1c-1.6-0.1-3.3-0.3-5.1-0.4c-35.6-2.9-109.6-9.1-172.6,54l-76.9,76.9l-114.6,25l-93.8,93.8   l81.9,21.2l16.7,16.7l-52.5,76.2l24.9,24.9l-14.3,14.3l10.6,10.6l14.3-14.3l27.4,27.4l73.9-54.9l16.6,16.6l21.2,81.9l93.8-93.8   l25-114.6l76.9-76.9c63-63,56.9-137,54-172.6c-0.1-1.8-0.3-3.5-0.4-5.1l-0.5-6.4L490.8,13.1z M138.3,419.6L120,401.3l24.7-24.7   L134.1,366l-24.7,24.7l-16.1-16.1l43.9-63.6l62.8,62.8L138.3,419.6z M57,254.4l72.2-72.2l87.5-19.1L111.3,268.4L57,254.4z    M251.5,369L234,386.6L124.2,276.7l17.5-17.5L251.5,369z M328.6,381.7l-72.1,72.1l-14-54.4l105.3-105.3L328.6,381.7z M262.2,358.4   L152.3,248.6L318.4,82.5l49.6,49.6l-36.1,36.1c-18.7-13.6-45-12-61.9,4.9c-16.8,16.8-18.5,43.2-4.9,61.9l-31.3,31.3l10.6,10.6   l31.3-31.3c18.7,13.6,45,11.9,61.9-4.9c16.8-16.8,18.5-43.2,4.9-61.9l36.1-36.1l49.6,49.6L262.2,358.4z M327,183.8   c12.8,12.8,12.8,33.6,0,46.4c-12.8,12.8-33.6,12.8-46.4,0c-12.8-12.8-12.8-33.6,0-46.4C293.4,171,314.2,171,327,183.8z    M478.7,108.3c-6.1,23.9-17.9,49.4-40,73.3L329.1,72c23.9-22,49.4-33.9,73.3-40L478.7,108.3z M482.3,90.7L420,28.5   c25.4-3.9,47.9-2.2,63.2-0.9C484.5,42.9,486.2,65.4,482.3,90.7z"
   id="path24" />

<rect
   class="st0"
   height="15"
   transform="matrix(0.7071 -0.7071 0.7071 0.7071 -287.2091 180.2054)"
   width="15"
   x="66.4"
   y="429.3"
   id="rect26" />

<rect
   class="st0"
   height="15"
   transform="matrix(0.7071 -0.7071 0.7071 0.7071 -293.9263 209.5747)"
   width="42.2"
   x="84.9"
   y="452.1"
   id="rect28" />

<rect
   class="st0"
   height="15"
   transform="matrix(0.7072 -0.7071 0.7071 0.7072 -324.727 196.7583)"
   width="15"
   x="67.7"
   y="482.9"
   id="rect30" />

<rect
   class="st0"
   height="15"
   transform="matrix(0.7071 -0.7071 0.7071 0.7071 -272.2441 157.2359)"
   width="42.2"
   x="32.6"
   y="399.7"
   id="rect32" />

<rect
   class="st0"
   height="15"
   transform="matrix(0.7071 -0.7071 0.7071 0.7071 -303.087 144.4756)"
   width="15"
   x="15.3"
   y="430.6"
   id="rect34" />

<rect
   class="st3"
   height="15"
   transform="matrix(0.7071 -0.7071 0.7071 0.7071 -138.0137 242.0345)"
   width="15"
   x="215.6"
   y="280.1"
   id="rect36" />

</g>

<path
   style="fill:#16502d;stroke-width:0.963855"
   d="m 387.10858,747.87483 c -0.81089,-2.87333 -8.24393,-31.46519 -16.51787,-63.53748 L 355.54718,626.0241 342.84722,613.25301 c -6.98497,-7.02409 -13.03267,-12.77108 -13.43931,-12.77108 -0.40664,0 -26.19268,18.91225 -57.30232,42.02723 -31.10964,23.11497 -57.02392,42.2037 -57.5873,42.4194 -0.56337,0.2157 -10.56138,-9.15297 -22.21779,-20.81928 l -21.19348,-21.21146 -11.34053,11.31099 -11.34053,11.31098 -7.93673,-7.93673 -7.93673,-7.93673 11.31139,-11.34094 11.3114,-11.34095 -19.28446,-19.26535 C 125.28437,597.10314 116.77877,588 116.98948,587.46988 c 0.21071,-0.53012 18.43211,-27.15053 40.49199,-59.15644 22.05989,-32.00593 40.10889,-58.46957 40.10889,-58.8081 0,-0.33853 -5.96385,-6.55612 -13.25301,-13.81687 L 171.08434,442.48711 108.91566,426.43496 C 74.722892,417.60627 46.431992,410.09554 46.046997,409.74442 45.662001,409.39331 78.036049,376.41915 117.98932,336.4685 l 72.64232,-72.63754 89.33677,-19.49448 89.33678,-19.49448 67.15464,-66.93061 c 36.93504,-36.81183 71.27511,-70.221321 76.31125,-74.243297 40.64885,-32.463069 80.47748,-50.8101 131.25017,-60.460305 28.61412,-5.438593 65.1471,-6.597541 108.35733,-3.437457 l 24.18582,1.768776 1.12293,14.049724 c 2.44301,30.56584 3.23182,50.431662 2.64369,66.579839 -2.6588,73.00209 -23.42483,130.5654 -66.41296,184.09639 -3.19286,3.9759 -36.08673,37.59258 -73.09748,74.70371 l -67.29229,67.4748 -19.48944,89.34924 -19.48943,89.34925 -72.98324,72.9785 -72.98325,72.97851 z m 70.53224,-94.67226 56.18885,-56.195 14.89135,-67.90138 c 8.19024,-37.34576 14.89182,-68.55102 14.89239,-69.34504 5.8e-4,-0.79402 -37.08329,35.63876 -82.40859,80.96174 -45.3253,45.32298 -82.40964,82.99236 -82.40964,83.70974 0,2.28269 21.49462,84.96496 22.08805,84.96496 0.3128,0 25.85371,-25.28776 56.75759,-56.19502 z M 266.09375,619.33995 c 25.67253,-19.04977 46.87533,-34.78995 47.11733,-34.97815 0.66072,-0.51386 -97.62953,-98.58622 -98.7497,-98.53081 -0.79634,0.0394 -19.53237,26.9007 -64.01265,91.77308 l -5.21393,7.60426 12.91377,12.94039 12.91376,12.9404 19.30308,-19.28584 19.30307,-19.28585 7.93131,7.97272 7.9313,7.97272 -19.27043,19.25237 -19.27044,19.25237 14.62375,14.64662 c 12.51469,12.53426 14.85296,14.48185 16.2131,13.50414 0.87414,-0.62836 22.59415,-16.72864 48.26668,-35.77842 z m 113.67118,-28.9844 13.95685,-13.98182 -86.0158,-86.0158 -86.01582,-86.01582 -14.21552,14.21551 -14.21552,14.21552 85.77806,85.78211 c 47.17791,47.18015 86.00143,85.7821 86.27446,85.7821 0.27303,0 6.77702,-6.29182 14.45329,-13.9818 z M 540.0029,430.11758 669.88265,300.23517 l -39.03893,-39.03 -39.03893,-39.03001 -28.57472,28.57472 -28.57471,28.57471 3.01437,4.89897 c 15.54983,25.2717 14.31582,58.02295 -3.10546,82.42074 -22.7991,31.92919 -67.62602,40.0209 -101.07692,18.24541 l -2.65721,-1.72978 -24.33786,24.32383 -24.33786,24.32382 -7.94486,-7.94485 -7.94485,-7.94486 24.08594,-24.10352 24.08593,-24.10351 -5.30851,-10.60241 c -6.26648,-12.51572 -8.16421,-20.55374 -8.16421,-34.58028 0,-20.60259 7.81629,-38.54822 23.04844,-52.91744 24.14997,-22.78186 59.83209,-26.89485 88.15878,-10.16187 l 6.62891,3.91579 28.55006,-28.55006 28.55007,-28.55006 -39.03581,-39.0358 -39.0358,-39.0358 -130.11739,130.12006 -130.11739,130.12007 85.77942,85.78348 C 370.55183,521.39744 409.37095,560 409.63786,560 c 0.26691,0 58.93118,-58.44708 130.36504,-129.88242 z M 338.5558,254.70508 c -0.39846,-0.12966 -31.51966,6.48843 -69.15821,14.70687 l -68.43373,14.9426 -56.34487,56.3373 c -30.98968,30.98551 -56.093661,56.5885 -55.786624,56.89553 0.307037,0.30704 19.589934,5.48099 42.850894,11.49765 l 42.29264,10.93939 82.65219,-82.5418 c 45.45869,-45.39799 82.32616,-82.64789 81.92771,-82.77754 z m 153.41458,117.44261 c 29.28041,-10.4472 42.55608,-43.75767 28.76174,-72.1671 -3.82673,-7.88114 -13.30817,-17.56042 -21.33141,-21.77651 -28.23281,-14.83593 -61.82784,-2.37783 -73.04439,27.08714 -6.13862,16.12566 -3.34331,35.39541 7.13252,49.16868 7.27037,9.55885 16.36231,15.66721 28.3029,19.01513 7.30326,2.04769 22.60579,1.37465 30.17864,-1.32734 z m 200.67535,-95.76215 c 24.45267,-28.92914 40.37814,-57.40653 51.4216,-91.9504 2.13647,-6.68283 3.88448,-13.07256 3.88448,-14.1994 0,-1.42529 -18.11301,-20.13875 -59.51808,-61.49107 l -59.51807,-59.442268 -9.15662,2.711977 c -36.33544,10.761705 -67.67188,27.633062 -96.77593,52.103601 -5.08649,4.2767 -9.24817,8.08074 -9.24817,8.45341 0,0.80584 170.82963,171.76596 171.63486,171.76596 0.30502,0 3.57919,-3.57831 7.27593,-7.95181 z M 755.5302,131.9726 c 1.52076,-10.51531 2.05036,-65.317965 0.77364,-80.055435 l -0.80461,-9.287654 -5.94238,-0.566756 c -3.26832,-0.311716 -17.65324,-0.845773 -31.96649,-1.186795 -20.63203,-0.491568 -29.47346,-0.289094 -42.67201,0.977215 -9.15635,0.87849 -17.33256,1.859973 -18.16934,2.181075 -1.10881,0.42549 11.63938,13.746543 47.00668,49.119054 26.69046,26.694376 48.96304,48.392386 49.49464,48.217776 0.5316,-0.17459 1.55754,-4.40391 2.27987,-9.39848 z"
   id="path1468"
   transform="scale(0.64)" /><path
   style="fill:#16502d;stroke-width:0.963855"
   d="m 602.88108,522.39909 -7.67611,-7.72139 36.85248,-36.85249 36.85249,-36.85248 7.94864,7.94864 7.94864,7.94865 -36.61572,36.62523 c -20.13865,20.14388 -36.84491,36.62523 -37.12502,36.62523 -0.28011,0 -3.96354,-3.47462 -8.1854,-7.72139 z"
   id="path1655"
   transform="scale(0.64)" /><path
   style="fill:#16502d;stroke-width:0.963855"
   d="m 570.12048,555.18072 -7.66562,-7.71084 7.66685,-7.71208 7.66686,-7.71209 7.97316,7.93175 7.97317,7.93174 -7.44725,7.49118 c -4.09598,4.12015 -7.68446,7.49119 -7.9744,7.49119 -0.28993,0 -3.97668,-3.46988 -8.19277,-7.71085 z"
   id="path1694"
   transform="scale(0.64)" /><path
   style="fill:#16502d;stroke-width:0.963855"
   d="m 354.44348,114.92674 -7.43901,-7.48289 36.60929,-36.599782 36.60929,-36.599782 7.72879,7.683453 7.72878,7.683453 -36.38977,36.399223 c -20.01437,20.019575 -36.61896,36.399225 -36.89907,36.399225 -0.28011,0 -3.85685,-3.3673 -7.9483,-7.4829 z"
   id="path1733"
   transform="scale(0.64)" /><path
   style="fill:#16502d;stroke-width:0.963855"
   d="m 321.43938,148.4273 -7.67448,-7.71976 7.93683,-7.93683 7.93682,-7.93683 7.71785,7.71785 7.71786,7.71785 -7.9802,7.93874 -7.98019,7.93874 z"
   id="path1772"
   transform="scale(0.64)" /><path
   style="fill:#16502d;stroke-width:0.963855"
   d="m 321.92095,147.94501 -7.1902,-7.23852 7.4539,-7.45391 7.4539,-7.4539 7.23636,7.23636 7.23636,7.23635 -7.50005,7.45607 -7.50006,7.45606 z"
   id="path1811"
   transform="scale(0.64)" /><path
   style="fill:#16502d;stroke-width:0.963855"
   d="m 142.8835,740.95701 -7.93117,-7.97259 22.89963,-22.88472 22.89963,-22.88472 7.93117,7.97259 7.93117,7.97259 -22.89963,22.88472 -22.89963,22.88472 z"
   id="path1850"
   transform="scale(0.64)" /><path
   style="fill:#16502d;stroke-width:0.963855"
   d="m 107.46225,690.1128 -7.673255,-7.71852 7.936825,-7.93682 7.93683,-7.93683 7.93683,7.93683 7.93683,7.93682 -7.67326,7.71852 c -4.22028,4.24519 -7.91047,7.71853 -8.2004,7.71853 -0.28993,0 -3.98012,-3.47334 -8.2004,-7.71853 z"
   id="path1889"
   transform="scale(0.64)" /><path
   style="fill:#16502d;stroke-width:0.963855"
   d="m 60.955792,659.0293 -7.931171,-7.97259 22.89963,-22.88472 22.899629,-22.88472 7.93117,7.97259 7.93117,7.97259 -22.899627,22.88472 -22.89963,22.88471 z"
   id="path1928"
   transform="scale(0.64)" /><path
   style="fill:#16502d;stroke-width:0.963855"
   d="m 27.462247,692.04051 -7.673252,-7.71852 7.936828,-7.93682 7.936828,-7.93683 7.936828,7.93683 7.936827,7.93682 -7.673252,7.71852 c -4.220288,4.24519 -7.91047,7.71853 -8.200403,7.71853 -0.289934,0 -3.980116,-3.47334 -8.200404,-7.71853 z"
   id="path1967"
   transform="scale(0.64)" /><path
   style="fill:#217844;stroke-width:0.963855"
   d="m 109.38996,773.96823 -7.67325,-7.71852 7.93682,-7.93683 7.93683,-7.93683 7.93683,7.93683 7.93683,7.93683 -7.67325,7.71852 c -4.22029,4.24518 -7.91048,7.71852 -8.20041,7.71852 -0.28993,0 -3.98011,-3.47334 -8.2004,-7.71852 z"
   id="path2006"
   transform="scale(0.64)" /><path
   style="fill:#217844;stroke-width:0.963855"
   d="m 323.85462,473.73414 -85.29791,-85.302 129.39581,-129.39581 129.39581,-129.39581 38.30992,38.30991 38.3099,38.30991 -27.80962,27.82203 -27.80962,27.82203 -5.38145,-3.24053 c -11.53026,-6.94316 -24.18034,-10.2128 -39.23252,-10.14033 -29.08367,0.14 -54.71686,16.51655 -67.02575,42.82146 -10.16668,21.72689 -8.83939,50.17096 3.28034,70.29777 l 3.24091,5.38205 -23.96462,23.95025 c -13.18054,13.17262 -23.96462,24.3968 -23.96462,24.9426 0,0.5458 3.68995,4.66314 8.19989,9.14966 l 8.19989,8.15728 24.42084,-24.40675 24.42084,-24.40676 4.89713,3.01324 c 31.50374,19.38444 74.72888,11.8463 97.67945,-17.03456 10.73566,-13.5097 15.27837,-26.04273 15.99337,-44.12472 0.65575,-16.5835 -2.25325,-28.78672 -9.88222,-41.45588 l -3.41858,-5.67711 27.76004,-27.76004 27.76002,-27.76003 38.548,38.55703 38.548,38.55703 -129.15234,129.15504 c -71.0338,71.03528 -129.37074,129.15504 -129.63767,129.15504 -0.26692,0 -38.86938,-38.38589 -85.78324,-85.302 z m 33.74311,-32.76288 c -4.48667,-4.51009 -8.43319,-8.20018 -8.77005,-8.20018 -0.33685,0 -4.34494,3.79519 -8.90686,8.43374 l -8.29441,8.43373 8.39034,8.44054 8.39034,8.44055 8.67411,-8.67411 8.67411,-8.6741 z"
   id="path2082"
   transform="scale(0.64)" /><path
   style="fill:#16502d;stroke-width:0.963855"
   d="m 201.74417,640.74878 -13.8269,-13.70904 19.30013,-19.31737 19.30013,-19.31737 -8.686,-8.64576 -8.68599,-8.64575 -19.27372,19.25565 -19.27373,19.25565 -12.10831,-12.10832 -12.10832,-12.10832 34.03819,-49.31625 34.03818,-49.31626 48.42214,48.40423 c 45.5255,45.50867 48.32193,48.4994 46.74699,49.99505 -2.5307,2.40331 -92.72817,69.28291 -93.43868,69.28291 -0.33947,0 -6.83931,-6.16907 -14.44411,-13.70905 z"
   id="path2121"
   transform="scale(0.64)" /><path
   style="fill:#16502d;stroke-width:0.963855"
   d="m 388.43373,751.79132 c 0,-0.27294 -7.34776,-28.89908 -16.32838,-63.61366 L 355.77696,625.06024 343.0802,612.77108 c -6.98322,-6.75903 -13.18967,-12.28027 -13.79209,-12.26941 -0.60244,0.0109 -13.26263,9.01085 -28.13376,20 -51.78517,38.26707 -84.77713,62.53182 -86.03087,63.27355 -0.86464,0.51154 -7.86024,-5.80797 -22.21557,-20.0685 -11.52442,-11.44834 -21.35935,-20.81515 -21.85538,-20.81515 -0.49604,0 -5.78999,4.87422 -11.76432,10.83162 l -10.86244,10.83161 -7.45414,-7.45413 -7.45415,-7.45415 10.83162,-10.86244 c 5.9574,-5.97434 10.83162,-11.27553 10.83162,-11.78043 0,-0.50489 -8.49689,-9.45364 -18.88198,-19.88609 -16.19487,-16.26871 -18.7431,-19.2222 -17.90604,-20.75367 0.53677,-0.98207 18.56364,-27.37594 40.0597,-58.65305 21.49607,-31.27711 39.09596,-57.40668 39.11086,-58.06571 0.0149,-0.65904 -5.71989,-7.08022 -12.74398,-14.26931 l -12.77109,-13.07105 -12.53012,-3.26013 c -6.89156,-1.79307 -34.393,-8.94243 -61.114298,-15.88748 -26.721299,-6.94504 -49.275516,-13.01725 -50.120482,-13.4938 -1.230549,-0.694 12.850588,-15.25979 70.75285,-73.18806 l 72.28916,-72.32162 9.15663,-2.02084 c 26.59952,-5.87041 135.04309,-29.49203 150.84337,-32.85731 l 18.31325,-3.90052 57.3494,-57.08228 c 72.85985,-72.520467 82.57671,-81.817221 95.76512,-91.624718 59.34434,-44.131115 122.4423,-61.509435 208.76656,-57.498087 29.72887,1.381451 43.16263,2.419957 44.15619,3.413523 2.54056,2.54056 4.97099,75.447475 3.21536,96.452692 -5.12355,61.30053 -23.0318,110.02215 -57.64717,156.83629 -9.3928,12.70291 -11.55723,14.95694 -88.29513,91.94994 l -59.6722,59.87056 -19.51255,89.38839 -19.51254,89.3884 -72.90893,72.90892 c -40.09991,40.0999 -72.90893,72.68562 -72.90893,72.41268 z m 69.48995,-98.05638 55.98792,-55.66265 2.75861,-12.20222 c 3.35294,-14.83113 24.41385,-111.82418 25.98742,-119.68145 0.61888,-3.09023 0.89202,-5.85182 0.60698,-6.13686 -1.36652,-1.36652 -162.04674,159.36307 -163.84743,163.89777 -0.59021,1.48632 1.23421,10.13706 6.43411,30.5083 10.57254,41.41924 14.3275,54.93976 15.25804,54.93976 0.45454,0 26.021,-25.04819 56.81435,-55.66265 z M 266.05454,619.93679 c 25.95916,-19.25162 47.19847,-35.47326 47.19847,-36.04807 0,-1.40084 -97.27195,-98.10878 -98.66611,-98.094 -1.2233,0.0129 -9.14787,11.15387 -45.21365,63.56435 l -24.84603,36.10606 12.78324,12.80961 c 7.03078,7.04528 13.21903,12.8096 13.75167,12.8096 0.53263,0 9.4373,-8.46095 19.78816,-18.80209 l 18.81974,-18.8021 7.44813,7.49207 7.44812,7.49207 -18.78916,18.77063 c -10.33405,10.32386 -18.78917,19.27275 -18.78917,19.88646 0,0.61369 6.35676,7.25364 14.12614,14.75541 9.58301,9.25294 14.7076,13.54687 15.93406,13.35128 0.99436,-0.15857 23.04723,-16.03965 49.00639,-35.29128 z m 114.48825,-29.53668 14.15601,-13.93724 -86.50439,-86.54238 -86.50439,-86.54238 -14.70043,14.76689 -14.70043,14.76689 86.12616,85.71273 c 47.36937,47.142 86.54135,85.71273 87.04881,85.71273 0.50746,0 7.29285,-6.27176 15.07866,-13.93724 z M 540.23818,430.71018 c 71.30274,-71.10941 129.64134,-129.77406 129.64134,-130.36591 0,-0.59185 -17.56592,-18.63799 -39.03537,-40.10253 l -39.03536,-39.02643 -28.82635,28.81434 -28.82635,28.81433 4.65057,8.77079 c 5.4169,10.21603 7.30174,16.12778 8.6811,27.22788 1.86879,15.03883 -1.84956,32.43109 -9.86042,46.12121 -4.71235,8.05317 -17.3251,20.81228 -25.12078,25.41229 -22.33057,13.17668 -52.98234,13.21972 -75.34427,0.10581 l -6.69312,-3.92511 -24.15761,24.14367 -24.15761,24.14367 -7.46286,-7.46285 -7.46286,-7.46286 23.76355,-23.77781 23.76355,-23.77782 -5.34357,-11.89227 c -2.93896,-6.54075 -5.88443,-14.49468 -6.54548,-17.6754 -1.86278,-8.96305 -1.43323,-25.63539 0.88871,-34.49322 8.62681,-32.90998 41.22669,-56.45755 75.26142,-54.36289 11.3138,0.69629 20.03605,3.28424 31.44111,9.32875 l 8.77079,4.64838 28.81433,-28.82635 28.81434,-28.82635 -39.02644,-39.03537 c -21.46454,-21.46944 -39.46278,-39.03536 -39.99609,-39.03536 -0.53331,0 -59.52327,58.58586 -131.0888,130.1908 l -130.11914,130.1908 86.13399,85.71281 C 370.1342,521.42923 409.27752,560 409.74567,560 c 0.46814,0 59.18977,-58.18042 130.49251,-129.28982 z M 222.69083,371.78391 c 68.73439,-68.30474 116.08378,-116.22215 115.46042,-116.84551 -0.66108,-0.66108 -18.20947,3.01601 -112.12715,23.49511 L 200,284.10816 144.34741,340.36733 c -30.60893,30.94255 -55.65712,56.55525 -55.662652,56.91711 -0.0055,0.36187 0.965844,0.97516 2.158615,1.36288 3.614558,1.17491 81.133047,21.46539 82.168677,21.50767 0.53012,0.0216 22.88557,-21.74535 49.67878,-48.37108 z m 263.58849,2.10778 c 13.17192,-2.43496 27.45898,-13.18036 33.95322,-25.53646 8.12247,-15.454 8.15309,-34.58528 0.0796,-49.73269 -3.73883,-7.01477 -15.02447,-17.91705 -22.09195,-21.34151 -29.83119,-14.45433 -64.30239,0.56703 -73.54994,32.05054 -1.95935,6.67061 -1.98955,20.09499 -0.0619,27.49585 5.73563,22.02056 25.98955,38.01628 48.22665,38.08745 4.27613,0.0137 10.32606,-0.44674 13.44429,-1.02318 z m 207.47885,-98.29537 c 15.0425,-17.41591 29.98061,-40.77375 39.32337,-61.48766 5.93068,-13.14894 14.87027,-39.03839 14.87027,-43.06498 0,-1.9036 -3.83832,-6.43342 -16.55039,-19.53211 C 700.58857,119.76161 630.85296,50.192977 629.29863,49.653257 c -1.9207,-0.666941 -19.86818,4.896082 -34.59983,10.724611 -26.22694,10.376596 -56.36568,28.984207 -75.18073,46.416452 l -6.26506,5.80462 21.65256,22.01378 c 54.72867,55.64172 149.66614,149.80809 150.69698,149.47301 0.62944,-0.2046 4.29947,-4.02483 8.15562,-8.48941 z m 61.98704,-142.8076 c 1.43477,-8.88057 1.94379,-80.422239 0.61658,-86.658419 -0.51792,-2.433567 -1.4037,-3.699981 -2.89156,-4.134139 -1.17971,-0.344237 -16.89192,-0.874537 -34.91601,-1.178444 -26.31587,-0.443716 -35.59975,-0.24982 -47.13134,0.984347 -7.89813,0.845297 -14.55683,1.733491 -14.79711,1.973764 -0.80218,0.802195 2.04744,4.010984 21.44652,24.149558 25.50637,26.478683 74.46051,74.022403 75.53473,73.358493 0.46784,-0.28914 1.43003,-4.11197 2.13819,-8.49516 z"
   id="path2271"
   transform="scale(0.64)" /><path
   style="fill:#2ca05a;stroke-width:0.963855"
   d="m 324.33655,473.25221 -84.81597,-84.82008 128.91387,-128.91386 128.91386,-128.91388 37.82793,37.82793 37.82793,37.82793 -27.28964,27.30226 -27.28966,27.30225 -8.88664,-4.45692 c -11.9874,-6.01206 -21.30492,-8.12502 -35.32136,-8.00991 -29.79633,0.2447 -54.35861,15.34418 -67.04165,41.21338 -5.26064,10.72994 -7.33877,20.29044 -7.33877,33.76218 0,14.19005 2.15188,23.44408 8.18069,35.18073 l 4.20842,8.19277 -23.46218,23.82878 c -12.9042,13.10582 -23.46218,24.51007 -23.46218,25.34277 0,0.83271 3.66713,5.29048 8.14918,9.90617 l 8.14917,8.39216 24.43141,-24.38084 24.43141,-24.38083 8.62423,4.40595 c 12.02448,6.14307 21.34517,8.36153 35.13027,8.36153 26.2086,0 49.26791,-12.13853 63.50975,-33.43185 8.26133,-12.35172 11.68325,-24.89133 11.65424,-42.70695 -0.0223,-13.70177 -1.88334,-21.80671 -7.67126,-33.40918 l -4.80822,-9.63856 27.21529,-27.23015 27.2153,-27.23016 38.06599,38.07514 38.06599,38.07514 -128.67038,128.67309 c -70.76871,70.7702 -128.88878,128.67309 -129.15572,128.67309 -0.26693,0 -38.65252,-38.16903 -85.3013,-84.82008 z m 33.73448,-15.41962 8.63325,-8.67344 -7.6732,-7.71846 c -4.22026,-4.24515 -8.49262,-7.97854 -9.49415,-8.29641 -1.37573,-0.43664 -3.7953,1.38614 -9.89581,7.45496 -4.44117,4.41809 -8.07485,8.46715 -8.07485,8.9979 0,1.28712 15.5824,16.90888 16.86628,16.90888 0.55288,0 4.8902,-3.90304 9.63848,-8.67343 z"
   id="path2384"
   transform="scale(0.64)" /><path
   style="fill:#37c871;stroke-width:0.963855"
   d="m 202.15736,640.23009 -13.23849,-13.26388 18.79358,-18.77504 c 10.33646,-10.32627 18.79357,-19.22199 18.79357,-19.76826 0,-0.54627 -3.90611,-4.88123 -8.68024,-9.63325 l -8.68024,-8.64002 -19.27363,19.25555 -19.27362,19.25555 -11.7089,-11.70889 -11.7089,-11.7089 32.11774,-46.59738 c 17.66475,-25.62856 32.84497,-47.54836 33.73381,-48.71066 1.60071,-2.09317 2.06698,-1.66127 48.99082,45.37959 26.0561,26.12108 47.37473,47.94767 47.37473,48.50352 0,1.31079 -91.58159,69.67596 -93.33751,69.67596 -0.36532,0 -6.62154,-5.96876 -13.90272,-13.26389 z"
   id="path2460"
   transform="scale(0.64)" /><path
   style="fill:#37c871;stroke-width:0.963855"
   d="M 324.81847,472.77027 240.48445,388.43213 368.91637,260.00019 497.3483,131.56827 l 37.3481,37.34811 37.3481,37.3481 -26.9861,26.94688 -26.98611,26.9469 -6.74699,-3.31347 c -15.48242,-7.60346 -29.44568,-10.13799 -45.45222,-8.25024 -26.51581,3.12718 -46.96878,17.16697 -58.5101,40.16385 -5.7093,11.37616 -7.64951,20.15583 -7.64951,34.61509 0,14.73996 1.89123,23.03623 8.03851,35.26254 l 3.88371,7.72432 -20.65649,21.39814 c -24.73518,25.62325 -26.00378,27.09844 -25.22464,29.33205 0.32705,0.93756 4.0394,5.39139 8.24967,9.89741 l 7.65504,8.19277 24.54649,-24.52568 24.54649,-24.5257 9.44315,4.47276 c 10.9395,5.1815 15.06138,6.37553 25.75506,7.46071 15.81706,1.6051 34.71152,-2.18957 46.6413,-9.3672 14.1935,-8.5396 22.70831,-17.6173 29.62856,-31.58718 6.00499,-12.12226 7.49437,-20.27537 6.93818,-37.98074 -0.48013,-15.28395 -1.07603,-17.69944 -7.96025,-32.26694 l -3.59019,-7.59708 26.862,-26.862 26.86201,-26.862 37.58398,37.59325 37.58398,37.59325 -128.18842,128.19113 c -70.50362,70.50512 -128.40682,128.19113 -128.67376,128.19113 -0.26695,0 -38.43566,-37.95217 -84.81938,-84.33816 z m 33.75884,-14.83361 9.13353,-8.56937 -2.40964,-2.61261 c -1.3253,-1.43694 -5.32453,-5.20438 -8.88716,-8.3721 -5.21539,-4.63726 -6.89282,-5.62768 -8.60885,-5.08303 -2.45728,0.77991 -16.23892,14.64016 -16.23892,16.33154 0,1.45667 15.33138,16.87493 16.77984,16.87493 0.60371,0 5.20776,-3.85621 10.2312,-8.56936 z"
   id="path2536"
   transform="scale(0.64)" /><path
   style="fill:#afe9c6;stroke-width:1.92771"
   d="m 600.91529,197.1438 -84.38592,-84.48612 6.31363,-5.87215 c 22.6291,-21.046758 67.42705,-45.585308 96.65906,-52.946011 l 9.31721,-2.346101 58.60241,58.578792 c 32.23133,32.21833 58.60242,59.73961 58.60242,61.1584 0,1.41879 -2.28315,9.23135 -5.07364,17.36125 -9.90871,28.86821 -30.57945,65.22985 -48.18027,84.75322 l -7.46899,8.28484 z"
   id="path2612"
   transform="scale(0.64)" /><path
   style="fill:#2ca05a;stroke-width:1.92771"
   d="m 603.32558,521.39635 -6.58735,-6.79643 36.07586,-36.07586 36.07587,-36.07587 7.21593,7.21594 7.21594,7.21593 -35.61728,35.65636 c -19.5895,19.61099 -36.1065,35.65635 -36.70445,35.65635 -0.59794,0 -4.05148,-3.05839 -7.67452,-6.79642 z"
   id="path894"
   transform="scale(0.64)" /><path
   style="fill:#2ca05a;stroke-width:1.92771"
   d=""
   id="path1007"
   transform="scale(0.64)" /><path
   style="fill:#2ca05a;stroke-width:1.92771"
   d=""
   id="path1083"
   transform="scale(0.64)" /><path
   style="fill:#2ca05a;stroke-width:1.92771"
   d="m 353.67875,113.67629 -5.59679,-5.84179 36.06665,-36.066647 36.06665,-36.066648 7.24177,7.306321 7.24177,7.30632 -35.08022,34.602114 c -19.29412,19.03116 -36.26435,34.60211 -37.71163,34.60211 -1.44728,0 -5.14997,-2.6288 -8.2282,-5.84178 z"
   id="path1122"
   transform="scale(0.64)" /><path
   style="fill:#2ca05a;stroke-width:1.92771"
   d="m 143.62489,740.25164 -7.59851,-7.78157 22.07739,-22.1402 22.0774,-22.1402 7.72144,7.72144 7.72144,7.72144 -22.20033,22.20033 -22.20033,22.20033 z"
   id="path1200"
   transform="scale(0.64)" /><path
   style="fill:#2ca05a;stroke-width:1.92771"
   d="m 61.13877,657.7753 -7.113558,-7.28495 22.113996,-22.05126 22.113995,-22.05126 7.771457,7.58862 7.77145,7.58862 -21.685885,21.74759 c -11.927239,11.96117 -22.174591,21.74758 -22.771893,21.74758 -0.597302,0 -4.287104,-3.27822 -8.199562,-7.28494 z"
   id="path1239"
   transform="scale(0.64)" /><path
   style="fill:#afe9c6;stroke-width:1.92771"
   d="m 570.56715,554.18048 -6.57471,-6.78337 7.16041,-7.1604 7.1604,-7.1604 7.16041,7.1604 7.1604,7.1604 -6.5747,6.78337 c -3.61609,3.73086 -7.10183,6.78338 -7.74611,6.78338 -0.64427,0 -4.13002,-3.05252 -7.7461,-6.78338 z"
   id="path1315"
   transform="scale(0.64)" /><path
   style="fill:#afe9c6;stroke-width:1.92771"
   d="m 110.36145,773.81481 c -3.44579,-2.71569 -6.26506,-6.00578 -6.26506,-7.31131 0,-1.30554 3.03614,-5.31645 6.74698,-8.91314 l 6.74699,-6.53944 6.74699,6.53944 c 3.71084,3.59669 6.74699,7.50818 6.74699,8.6922 0,2.58424 -10.05215,12.52155 -12.63561,12.49124 -1.00222,-0.0118 -4.6415,-2.2433 -8.08728,-4.95899 z"
   id="path1354"
   transform="scale(0.64)" /><path
   style="fill:#afe9c6;stroke-width:1.92771"
   d="m 26.950828,691.04604 -6.576562,-6.78529 7.704089,-7.70409 7.70409,-7.70409 7.650947,7.86438 7.650945,7.86438 -7.200607,6.625 c -3.960333,3.64375 -7.910646,6.625 -8.778473,6.625 -0.867827,0 -4.53732,-3.05338 -8.154429,-6.78529 z"
   id="path1393"
   transform="scale(0.64)" /><path
   style="fill:#afe9c6;stroke-width:1.92771"
   d="m 107.91654,689.12024 -6.5747,-6.78337 7.16041,-7.1604 7.1604,-7.16041 7.16041,7.16041 7.1604,7.1604 -6.5747,6.78337 c -3.61609,3.73086 -7.10184,6.78337 -7.74611,6.78337 -0.64427,0 -4.13002,-3.05251 -7.74611,-6.78337 z"
   id="path1432"
   transform="scale(0.64)" /><path
   style="fill:#afe9c6;stroke-width:1.92771"
   d="m 321.89245,147.4335 -6.5747,-6.78337 7.1604,-7.16041 7.1604,-7.1604 7.16041,7.1604 7.1604,7.16041 -6.5747,6.78337 c -3.61609,3.73085 -7.10183,6.78337 -7.74611,6.78337 -0.64427,0 -4.13002,-3.05252 -7.7461,-6.78337 z"
   id="path1471"
   transform="scale(0.64)" /></svg>
