<?xml version="1.0" encoding="UTF-8" standalone="no"?>
<svg
   height="1465"
   viewBox="-.1 1.1 304.9 179.8"
   width="2500"
   version="1.1"
   id="svg10"
   sodipodi:docname="skills-aws.svg"
   inkscape:version="1.1.2 (0a00cf5339, 2022-02-04)"
   xmlns:inkscape="http://www.inkscape.org/namespaces/inkscape"
   xmlns:sodipodi="http://sodipodi.sourceforge.net/DTD/sodipodi-0.dtd"
   xmlns="http://www.w3.org/2000/svg"
   xmlns:svg="http://www.w3.org/2000/svg">
  <defs
     id="defs14" />
  <sodipodi:namedview
     id="namedview12"
     pagecolor="#ffffff"
     bordercolor="#666666"
     borderopacity="1.0"
     inkscape:pageshadow="2"
     inkscape:pageopacity="0.0"
     inkscape:pagecheckerboard="0"
     showgrid="false"
     inkscape:zoom="0.5316"
     inkscape:cx="1250.9406"
     inkscape:cy="731.7532"
     inkscape:window-width="1920"
     inkscape:window-height="1012"
     inkscape:window-x="0"
     inkscape:window-y="0"
     inkscape:window-maximized="1"
     inkscape:current-layer="svg10" />
  <path
     d="m86.4 66.4c0 3.7.4 6.7 1.1 8.9.8 2.2 1.8 4.6 3.2 7.2.5.8.7 1.6.7 2.3 0 1-.6 2-1.9 3l-6.3 4.2c-.9.6-1.8.9-2.6.9-1 0-2-.5-3-1.4-1.4-1.5-2.6-3.1-3.6-4.7-1-1.7-2-3.6-3.1-5.9-7.8 9.2-17.6 13.8-29.4 13.8-8.4 0-15.1-2.4-20-7.2s-7.4-11.2-7.4-19.2c0-8.5 3-15.4 9.1-20.6s14.2-7.8 24.5-7.8c3.4 0 6.9.3 10.6.8s7.5 1.3 11.5 2.2v-7.3c0-7.6-1.6-12.9-4.7-16-3.2-3.1-8.6-4.6-16.3-4.6-3.5 0-7.1.4-10.8 1.3s-7.3 2-10.8 3.4c-1.6.7-2.8 1.1-3.5 1.3s-1.2.3-1.6.3c-1.4 0-2.1-1-2.1-3.1v-4.9c0-1.6.2-2.8.7-3.5s1.4-1.4 2.8-2.1c3.5-1.8 7.7-3.3 12.6-4.5 4.9-1.3 10.1-1.9 15.6-1.9 11.9 0 20.6 2.7 26.2 8.1 5.5 5.4 8.3 13.6 8.3 24.6v32.4zm-40.6 15.2c3.3 0 6.7-.6 10.3-1.8s6.8-3.4 9.5-6.4c1.6-1.9 2.8-4 3.4-6.4s1-5.3 1-8.7v-4.2c-2.9-.7-6-1.3-9.2-1.7s-6.3-.6-9.4-.6c-6.7 0-11.6 1.3-14.9 4s-4.9 6.5-4.9 11.5c0 4.7 1.2 8.2 3.7 10.6 2.4 2.5 5.9 3.7 10.5 3.7zm80.3 10.8c-1.8 0-3-.3-3.8-1-.8-.6-1.5-2-2.1-3.9l-23.5-77.3c-.6-2-.9-3.3-.9-4 0-1.6.8-2.5 2.4-2.5h9.8c1.9 0 3.2.3 3.9 1 .8.6 1.4 2 2 3.9l16.8 66.2 15.6-66.2c.5-2 1.1-3.3 1.9-3.9s2.2-1 4-1h8c1.9 0 3.2.3 4 1 .8.6 1.5 2 1.9 3.9l15.8 67 17.3-67c.6-2 1.3-3.3 2-3.9.8-.6 2.1-1 3.9-1h9.3c1.6 0 2.5.8 2.5 2.5 0 .5-.1 1-.2 1.6s-.3 1.4-.7 2.5l-24.1 77.3c-.6 2-1.3 3.3-2.1 3.9s-2.1 1-3.8 1h-8.6c-1.9 0-3.2-.3-4-1s-1.5-2-1.9-4l-15.5-64.5-15.4 64.4c-.5 2-1.1 3.3-1.9 4s-2.2 1-4 1zm128.5 2.7c-5.2 0-10.4-.6-15.4-1.8s-8.9-2.5-11.5-4c-1.6-.9-2.7-1.9-3.1-2.8s-.6-1.9-.6-2.8v-5.1c0-2.1.8-3.1 2.3-3.1.6 0 1.2.1 1.8.3s1.5.6 2.5 1c3.4 1.5 7.1 2.7 11 3.5 4 .8 7.9 1.2 11.9 1.2 6.3 0 11.2-1.1 14.6-3.3s5.2-5.4 5.2-9.5c0-2.8-.9-5.1-2.7-7s-5.2-3.6-10.1-5.2l-14.5-4.5c-7.3-2.3-12.7-5.7-16-10.2-3.3-4.4-5-9.3-5-14.5 0-4.2.9-7.9 2.7-11.1s4.2-6 7.2-8.2c3-2.3 6.4-4 10.4-5.2s8.2-1.7 12.6-1.7c2.2 0 4.5.1 6.7.4 2.3.3 4.4.7 6.5 1.1 2 .5 3.9 1 5.7 1.6s3.2 1.2 4.2 1.8c1.4.8 2.4 1.6 3 2.5.6.8.9 1.9.9 3.3v4.7c0 2.1-.8 3.2-2.3 3.2-.8 0-2.1-.4-3.8-1.2-5.7-2.6-12.1-3.9-19.2-3.9-5.7 0-10.2.9-13.3 2.8s-4.7 4.8-4.7 8.9c0 2.8 1 5.2 3 7.1s5.7 3.8 11 5.5l14.2 4.5c7.2 2.3 12.4 5.5 15.5 9.6s4.6 8.8 4.6 14c0 4.3-.9 8.2-2.6 11.6-1.8 3.4-4.2 6.4-7.3 8.8-3.1 2.5-6.8 4.3-11.1 5.6-4.5 1.4-9.2 2.1-14.3 2.1z"
     fill="#252f3e"
     id="path2" />
  <g
     clip-rule="evenodd"
     fill="#f90"
     fill-rule="evenodd"
     id="g8">
    <path
       d="m273.5 143.7c-32.9 24.3-80.7 37.2-121.8 37.2-57.6 0-109.5-21.3-148.7-56.7-3.1-2.8-.3-6.6 3.4-4.4 42.4 24.6 94.7 39.5 148.8 39.5 36.5 0 76.6-7.6 113.5-23.2 5.5-2.5 10.2 3.6 4.8 7.6z"
       id="path4" />
    <path
       d="m287.2 128.1c-4.2-5.4-27.8-2.6-38.5-1.3-3.2.4-3.7-2.4-.8-4.5 18.8-13.2 49.7-9.4 53.3-5 3.6 4.5-1 35.4-18.6 50.2-2.7 2.3-5.3 1.1-4.1-1.9 4-9.9 12.9-32.2 8.7-37.5z"
       id="path6" />
  </g>
  <path
     style="fill:#ffffff;stroke-width:1.88111"
     d="m 305.84082,758.9241 c -94.34418,-12.8443 -159.8974,-73.12491 -176.88073,-162.65373 -6.61633,-34.87848 -5.52897,-74.73564 2.97537,-109.06194 20.71271,-83.60333 92.72676,-145.01481 192.17013,-163.87705 29.62319,-5.61889 94.9418,-6.98405 133.00502,-2.77984 32.12729,3.54859 64.01225,8.82034 96.74599,15.99566 l 23.64528,5.1831 -0.0113,-46.24136 c -0.015,-64.16983 -4.53419,-91.08367 -20.39648,-121.48026 -17.33388,-33.21663 -52.0632,-52.69099 -105.57769,-59.20235 -20.60797,-2.50748 -68.1294,-2.48934 -88.51102,0.0338 -37.84776,4.68531 -83.43436,16.88766 -130.38524,34.90075 -38.93854,14.93909 -45.49391,16.12289 -53.0974,9.58858 l -5.51975,-4.74373 -0.60812,-31.67584 c -0.33446,-17.42171 -0.0656,-35.30919 0.59745,-39.74995 1.85954,-12.454072 9.72107,-19.80253 33.70082,-31.501362 C 299.3624,6.936507 424.75177,-8.9665954 524.63232,11.461224 633.03977,33.632987 691.21116,97.895602 706.44276,212.30933 c 2.10013,15.77541 2.67139,50.97248 2.70036,166.37468 0.022,87.86755 0.81679,153.65294 1.9885,164.59744 6.00333,56.07525 7.5425,61.79451 28.59726,106.26251 18.98346,40.09336 18.31217,42.01844 -24.67862,70.77068 -32.57929,21.78903 -41.3149,26.48747 -49.24708,26.48747 -18.27543,0 -41.65431,-25.88836 -66.68446,-73.84233 l -12.35773,-23.67556 -22.05245,21.95308 c -52.79041,52.55252 -112.47549,81.21089 -184.72359,88.69686 -23.80854,2.46691 -51.36211,2.09155 -74.14413,-1.01006 z M 418.54778,653.71941 c 52.90863,-8.66949 83.37696,-23.27974 115.79281,-55.52528 16.9418,-16.85278 20.98654,-22.09844 27.55871,-35.74116 12.67128,-26.3034 17.48369,-53.93944 17.48369,-100.40288 0,-27.91356 -0.32981,-31.12061 -3.29194,-32.01038 -20.96187,-6.29656 -74.6687,-14.01057 -115.52188,-16.59266 -58.19688,-3.67828 -100.65292,1.92394 -132.96665,17.54544 -29.28306,14.15638 -50.93999,41.06599 -58.86806,73.14596 -3.77723,15.28412 -3.28354,59.77447 0.83496,75.24454 9.82348,36.89933 35.55194,63.42611 69.97159,72.14276 6.20767,1.57207 13.82618,3.20952 16.93002,3.63875 13.54372,1.87303 46.51031,1.10559 62.07675,-1.44509 z"
     id="path129"
     transform="matrix(0.12273038,0,0,0.12273038,-1.0629693,1.1)" />
  <path
     style="fill:#ffffff;stroke-width:1.88111"
     d="m 1017.304,740.54392 c -9.4137,-2.98384 -15.4914,-8.7047 -21.18573,-19.94202 -4.25915,-8.405 -195.5861,-633.856255 -203.33636,-664.710186 -3.82074,-15.210446 -2.54553,-24.173818 4.19334,-29.474613 4.64389,-3.652884 7.37246,-3.843217 54.95263,-3.833247 28.47506,0.006 53.06818,0.844275 57.02744,1.943899 9.3078,2.585107 18.51826,13.68353 23.6504,28.498285 3.17721,9.171539 98.60848,382.727672 134.20058,525.314952 4.5178,18.09887 6.4791,23.41289 7.6372,20.69225 0.857,-2.01343 30.3461,-125.98019 65.5314,-275.4817 44.0775,-187.28409 65.4799,-274.905731 68.8178,-281.739873 3.6251,-7.422284 6.8167,-10.973461 12.6798,-14.108353 7.4205,-3.96762 10.3912,-4.220347 56.1182,-4.774118 32.49,-0.393466 50.9338,0.129092 56.3874,1.597593 10.0796,2.714143 19.01,11.865557 22.9966,23.565624 1.6411,4.816195 31.8104,131.194217 67.0429,280.840057 35.2326,149.64582 64.7728,273.77633 65.6451,275.84556 1.9549,4.63798 -8.0411,41.91841 75.2446,-280.62643 40.3499,-156.26513 71.5697,-273.614484 74.3644,-279.522018 9.8909,-20.907678 13.1893,-21.868713 75.4151,-21.973651 54.2906,-0.09156 55.6612,0.185425 58.8964,11.902331 0.9462,3.42685 1.0634,10.385527 0.2605,15.463726 -2.0406,12.906699 -204.51,661.944682 -209.734,672.325642 -9.7621,19.39866 -13.8848,20.50677 -76.6795,20.60969 -53.9369,0.0884 -58.5826,-0.57547 -67.0826,-9.58599 -2.3036,-2.44189 -5.4516,-6.85209 -6.9956,-9.80043 -1.5441,-2.94835 -31.9122,-126.43283 -67.4847,-274.40997 -35.5725,-147.97715 -65.1147,-269.48682 -65.6494,-270.02149 -0.5346,-0.53467 -1.3943,0.20716 -1.9104,1.64851 -0.5161,1.44134 -29.3324,121.55404 -64.0361,266.91709 -45.9654,192.53456 -64.4931,267.08283 -68.2369,274.55854 -5.8168,11.61533 -11.5327,16.49774 -22.2147,18.97519 -10.9943,2.54987 -98.0711,1.98183 -106.5158,-0.69485 z"
     id="path168"
     transform="matrix(0.12273038,0,0,0.12273038,-1.0629693,1.1)" />
  <path
     style="fill:#ffffff;stroke-width:1.88111"
     d="m 2043.9231,763.60088 c -60.9035,-4.7139 -137.1211,-23.71935 -174.0962,-43.41224 -29.7884,-15.86528 -35.7488,-27.13616 -35.7306,-67.56562 0.011,-25.51719 1.9288,-35.67592 7.8512,-41.59834 6.2509,-6.25092 18.8898,-3.84242 54.278,10.34344 58.7897,23.56668 111.1535,33.69966 174.8806,33.84138 69.6223,0.15482 111.1812,-11.84037 139.7261,-40.32935 32.849,-32.78468 34.0149,-90.95502 2.4554,-122.51444 -20.1217,-20.12179 -40.9464,-29.02852 -141.4213,-60.4861 -80.5472,-25.21845 -90.5884,-28.84861 -116.0371,-41.95068 -52.7487,-27.1572 -92.0788,-74.70782 -107.0251,-129.39469 -5.7418,-21.00896 -6.1637,-71.98891 -0.7706,-93.11513 8.7529,-34.28697 27.5669,-65.85216 54.9726,-92.230432 56.2348,-54.126475 133.8587,-78.4072903 233.4687,-73.0291756 51.7133,2.7920881 117.7581,17.8369176 152.68,34.7800406 20.3813,9.888476 33.8431,22.135073 37.407,34.030331 3.2867,10.970032 2.9933,60.947506 -0.4056,69.082096 -5.3662,12.8433 -16.1321,13.30897 -42.5856,1.842 -50.5158,-21.8974 -103.4372,-32.78326 -159.3972,-32.78781 -55.7931,-0.005 -98.5553,11.4402 -122.0363,32.6614 -19.0934,17.25577 -25.9127,35.68027 -24.7224,66.7954 0.9838,25.71723 5.9515,37.03766 24.1463,55.0256 17.1101,16.91547 46.0966,31.1438 96.8212,47.52562 20.6923,6.6827 60.0546,19.41624 87.4718,28.29675 69.7458,22.59086 99.6771,37.71016 128.5216,64.92062 48.6863,45.92818 66.8456,117.46525 48.0172,189.1598 -13.5316,51.52534 -51.2786,98.91732 -102.2348,128.35754 -55.3955,32.00508 -137.4546,47.84955 -216.2349,41.75199 z"
     id="path207"
     transform="matrix(0.12273038,0,0,0.12273038,-1.0629693,1.1)" />
</svg>
